<?xml version="1.0" encoding="utf-8"?>
<!-- Generator: Adobe Illustrator 26.0.3, SVG Export Plug-In . SVG Version: 6.00 Build 0)  -->
<svg version="1.1" id="Layer_1" xmlns="http://www.w3.org/2000/svg" xmlns:xlink="http://www.w3.org/1999/xlink" x="0px" y="0px"
	 viewBox="0 0 200.1 188.8" style="enable-background:new 0 0 200.1 188.8;" xml:space="preserve">
<style type="text/css">
	.st0{fill:none;}
	.st1{fill:#333333;}
	.st2{fill:#721111;}
	.st3{fill:#993333;}
</style>
<g>
	<polygon class="st0" points="59.9,149.3 60.5,149.4 60.2,148.8 	"/>
	<polygon class="st0" points="76,120.3 91.4,150.6 92.8,150.7 91.7,151.3 91.8,151.5 137.7,124.8 137.7,124.6 105.3,67.4 	"/>
	<polygon class="st1" points="60.2,148.8 60.5,149.4 91.4,150.6 76,120.3 	"/>
	<polygon class="st1" points="37,43.4 66,43.4 34.9,13.6 0,31 40.5,110.3 56.8,82.5 	"/>
	<polygon class="st1" points="192,49 179,28 144,49.4 169,49.7 154.5,84.4 167.6,106.8 	"/>
	<polygon class="st1" points="150.1,146.3 137.7,124.6 137.7,124.8 91.8,151.5 91.7,151.3 68.8,165.6 79.6,186.7 130.9,157.9 
		119.1,149.3 	"/>
	<polygon class="st2" points="91.4,150.6 91.7,151.3 92.8,150.7 	"/>
	<g>
		<polygon class="st3" points="167.6,106.8 150.7,146.8 130.9,157.9 173.1,188.8 200.1,162.5 		"/>
		<polygon class="st3" points="59.9,149.3 60.2,148.8 40.5,110.3 10.6,161.2 36.9,185.5 68.8,165.6 60.5,149.4 		"/>
		<polygon class="st3" points="105.3,67.4 137.7,124.6 154.5,84.4 105.3,0 56.8,82.5 76,120.3 		"/>
		<polygon class="st3" points="91.4,150.6 60.5,149.4 68.8,165.6 91.7,151.3 		"/>
		<polygon class="st3" points="167.6,106.8 154.5,84.4 137.7,124.6 150.1,146.3 119.1,149.3 130.9,157.9 150.7,146.8 		"/>
	</g>
	<polygon class="st1" points="76,120.3 56.8,82.5 40.5,110.3 60.2,148.8 	"/>
</g>
</svg>
