<svg id="Layer_1" data-name="Layer 1" xmlns="http://www.w3.org/2000/svg" viewBox="0 0 395.36 173.08"><defs><style>.cls-1{fill:#933;}.cls-2{fill:#333;}</style></defs><path class="cls-1" d="M0,16.8,3.48,0h18V99.07h8.11V0h18V101.74c0,8.46-5.68,14.14-14.14,14.14H17.61c-8.46,0-14.13-5.68-14.13-14.14V16.8Z"/><path class="cls-1" d="M55.62,0h18V99.07h22.6v16.81H55.62V16.8H52.14Z"/><path class="cls-1" d="M93.86,0h39.4V16.8h-12.4v99.08h-18V16.8H90.38Z"/><path class="cls-1" d="M166.86,99.07v16.81h-29V99.07h5.56V16.8h-5.56L141.37,0h25.49V16.8h-5.45V99.07Z"/><path class="cls-1" d="M171.49,16.8,175,0h25.72l8.93,57.94L218.54,0h25.72V115.88h-18V38.24l-12.05,77.64H205l-12-77.64v77.64H175V16.8Z"/><path class="cls-1" d="M252.37,81.69h2.32L261.88,0h32.91L305,115.88H287l-1.5-17.39H271.15l-1.51,17.39h-18l1.51-17.39H248.9Zm31.64,0-5.68-64.54-5.68,64.54Z"/><path class="cls-1" d="M307.3,0h39.4V16.8H334.3v99.08h-18V16.8H303.82Z"/><path class="cls-1" d="M351.33,16.8,354.81,0h40.55V16.8H372.77V49.48h15.64v16.8H372.77V99.07h22.59v16.81H354.81V16.8Z"/><path class="cls-2" d="M0,173.08l4.86-48h15.7l4.86,48H16.86l-.72-7.2H9.28l-.71,7.2Zm15.42-14.16-2.71-26.74L10,158.92Z"/><path class="cls-2" d="M48.16,125.07h7.51c4,0,6.75,2.36,6.75,5.86V139H53.85v-7H50v34.09h3.87v-7h8.57v8.06c0,3.51-2.71,5.86-6.75,5.86H48.16c-4,0-6.74-2.35-6.74-5.86V130.93C41.42,127.43,44.12,125.07,48.16,125.07Z"/><path class="cls-2" d="M85.15,125.07h7.52c4,0,6.74,2.36,6.74,5.86V139H90.84v-7H87v34.09h3.86v-7h8.57v8.06c0,3.51-2.71,5.86-6.74,5.86H85.15c-4,0-6.74-2.35-6.74-5.86V130.93C78.41,127.43,81.12,125.07,85.15,125.07Z"/><path class="cls-2" d="M134.75,125.07v7H124v13.54h7.46v7H124v13.59h10.78v7H115.4v-48Z"/><path class="cls-2" d="M150.74,125.07h8.57v41.05h10.77v7H150.74Z"/><path class="cls-2" d="M205.42,125.07v7H194.64v13.54h7.46v7h-7.46v13.59h10.78v7H186.08v-48Z"/><path class="cls-2" d="M221.41,125.07h14.26c4,0,6.74,2.36,6.74,5.86V143.7a5.48,5.48,0,0,1-3.81,5.38,5.46,5.46,0,0,1,3.81,5.37v12.24a24.45,24.45,0,0,0,.56,6.39H234.4c-.44-1.06-.55-3.12-.55-6.29V152.58H230v20.5h-8.57Zm8.57,7v13.54h3.87V132Z"/><path class="cls-2" d="M259,173.08l4.86-48h15.7l4.86,48h-8.57l-.71-7.2h-6.86l-.72,7.2Zm15.42-14.16-2.71-26.74L269,158.92Z"/><path class="cls-2" d="M300.37,132v-7h20.45v7h-5.91v41.05h-8.57V132Z"/><path class="cls-2" d="M351.07,125.07c4,0,6.75,2.36,6.75,5.86v36.29c0,3.51-2.71,5.86-6.75,5.86h-7.51c-4,0-6.74-2.35-6.74-5.86V130.93c0-3.5,2.7-5.86,6.74-5.86Zm-1.82,41.05V132h-3.87v34.09Z"/><path class="cls-2" d="M373.81,125.07h14.26c4,0,6.74,2.36,6.74,5.86V143.7a5.5,5.5,0,0,1-3.81,5.38,5.48,5.48,0,0,1,3.81,5.37v12.24a25,25,0,0,0,.55,6.39H386.8c-.44-1.06-.56-3.12-.56-6.29V152.58h-3.86v20.5h-8.57Zm8.57,7v13.54h3.86V132Z"/></svg>