<?xml version="1.0" encoding="utf-8"?>
<!-- Generator: Adobe Illustrator 26.0.3, SVG Export Plug-In . SVG Version: 6.00 Build 0)  -->
<svg version="1.1" id="Layer_1" xmlns="http://www.w3.org/2000/svg" xmlns:xlink="http://www.w3.org/1999/xlink" x="0px" y="0px"
	 viewBox="0 0 395.8 164.9" style="enable-background:new 0 0 395.8 164.9;" xml:space="preserve">
<style type="text/css">
	.st0{fill:#993333;}
	.st1{fill:#333333;}
</style>
<g>
	<path class="st0" d="M0,16.8L3.5,0h18v99.1h8.1V0h18v101.7c0,8.5-5.7,14.1-14.1,14.1H17.6c-8.5,0-14.1-5.7-14.1-14.1V16.8H0z"/>
	<path class="st0" d="M55.6,0h18v99.1h22.6v16.8H55.6V16.8h-3.5L55.6,0z"/>
	<path class="st0" d="M93.9,0h39.4v16.8h-12.4v99.1h-18V16.8H90.4L93.9,0z"/>
	<path class="st0" d="M166.9,99.1v16.8h-29V99.1h5.6V16.8h-5.6L141.4,0h25.5v16.8h-5.4v82.3H166.9z"/>
	<path class="st0" d="M171.5,16.8L175,0h25.7l8.9,57.9L218.5,0h25.7v115.9h-18V38.2l-12.1,77.6H205l-12.1-77.6v77.6h-18V16.8H171.5z
		"/>
	<path class="st0" d="M252.4,81.7h2.3L261.9,0h32.9L305,115.9h-18l-1.5-17.4h-14.4l-1.5,17.4h-18l1.5-17.4h-4.3L252.4,81.7z
		 M284,81.7l-5.7-64.5l-5.7,64.5H284z"/>
	<path class="st0" d="M307.3,0h39.4v16.8h-12.4v99.1h-18V16.8h-12.5L307.3,0z"/>
	<path class="st0" d="M351.3,16.8L354.8,0h40.6v16.8h-22.6v32.7h15.6v16.8h-15.6v32.8h22.6v16.8h-40.6V16.8H351.3z"/>
</g>
<g>
	<path class="st1" d="M53.6,164.9l3.5-35h11.4l3.5,35h-6.2l-0.5-5.3h-5l-0.5,5.3H53.6z M64.8,154.5l-2-19.5l-2,19.5H64.8z"/>
	<path class="st1" d="M88.7,129.9h5.5c2.9,0,4.9,1.7,4.9,4.3v5.9h-6.2v-5.1H90v24.9h2.8v-5.1h6.2v5.9c0,2.6-2,4.3-4.9,4.3h-5.5
		c-2.9,0-4.9-1.7-4.9-4.3v-26.5C83.7,131.6,85.7,129.9,88.7,129.9z"/>
	<path class="st1" d="M115.6,129.9h5.5c2.9,0,4.9,1.7,4.9,4.3v5.9h-6.2v-5.1H117v24.9h2.8v-5.1h6.2v5.9c0,2.6-2,4.3-4.9,4.3h-5.5
		c-2.9,0-4.9-1.7-4.9-4.3v-26.5C110.7,131.6,112.7,129.9,115.6,129.9z"/>
	<path class="st1" d="M151.8,129.9v5.1h-7.9v9.9h5.4v5.1h-5.4v9.9h7.9v5.1h-14.1v-35H151.8z"/>
	<path class="st1" d="M163.5,129.9h6.2v29.9h7.9v5.1h-14.1V129.9z"/>
	<path class="st1" d="M203.3,129.9v5.1h-7.9v9.9h5.4v5.1h-5.4v9.9h7.9v5.1h-14.1v-35H203.3z"/>
	<path class="st1" d="M215,129.9h10.4c2.9,0,4.9,1.7,4.9,4.3v9.3c0,1.9-1,3.3-2.8,3.9c1.7,0.6,2.8,2,2.8,3.9v8.9
		c0,1.8,0.1,3.7,0.4,4.7h-6.2c-0.3-0.8-0.4-2.3-0.4-4.6v-10.4h-2.8v14.9H215V129.9z M221.2,134.9v9.9h2.8v-9.9H221.2z"/>
	<path class="st1" d="M242.4,164.9l3.5-35h11.4l3.5,35h-6.2l-0.5-5.3h-5l-0.5,5.3H242.4z M253.6,154.5l-2-19.5l-2,19.5H253.6z"/>
	<path class="st1" d="M272.6,134.9v-5.1h14.9v5.1h-4.3v29.9h-6.2v-29.9H272.6z"/>
	<path class="st1" d="M309.5,129.9c2.9,0,4.9,1.7,4.9,4.3v26.5c0,2.6-2,4.3-4.9,4.3H304c-2.9,0-4.9-1.7-4.9-4.3v-26.5
		c0-2.6,2-4.3,4.9-4.3H309.5z M308.2,159.8v-24.9h-2.8v24.9H308.2z"/>
	<path class="st1" d="M326.1,129.9h10.4c2.9,0,4.9,1.7,4.9,4.3v9.3c0,1.9-1,3.3-2.8,3.9c1.7,0.6,2.8,2,2.8,3.9v8.9
		c0,1.8,0.1,3.7,0.4,4.7h-6.2c-0.3-0.8-0.4-2.3-0.4-4.6v-10.4h-2.8v14.9h-6.2V129.9z M332.3,134.9v9.9h2.8v-9.9H332.3z"/>
</g>
<rect x="3.2" y="143.9" class="st1" width="45" height="7"/>
<rect x="350.8" y="143.9" class="st1" width="45" height="7"/>
</svg>
